<svg class="svg svg--emoticons svg--inherit" xmlns="http://www.w3.org/2000/svg" viewBox="0 0 16 16" height="16px" width="16px" x="0px" y="0px">
    <g id="Layer_2" data-name="Layer 2">
        <path d="M2.35,8.15H1.68v3.08a3.41,3.41,0,0,0,.68,0A1.45,1.45,0,0,0,4,9.7,1.46,1.46,0,0,0,2.35,8.15Z"/>
        <path d="M12.25,4.71a3.62,3.62,0,0,0-1,.11v6.36a4,4,0,0,0,.82.06c1.74,0,2.68-1.25,2.68-3.42C14.81,5.92,14,4.71,12.25,4.71Z"/>
        <path d="M2.42,7.36A1.28,1.28,0,0,0,3.78,6,1.2,1.2,0,0,0,2.4,4.69a2.76,2.76,0,0,0-.72.07v2.6Z"/>
        <path d="M13,0H3A3,3,0,0,0,0,3V13a3,3,0,0,0,3,3H13a3,3,0,0,0,3-3V3A3,3,0,0,0,13,0ZM4.31,11.33a2.7,2.7,0,0,1-2.18.75A7.55,7.55,0,0,1,.87,12V4.06a6.19,6.19,0,0,1,1.48-.17,2.21,2.21,0,0,1,1.73.59A1.9,1.9,0,0,1,4.6,5.9,1.91,1.91,0,0,1,3.54,7.67v0a2,2,0,0,1,1.3,2A2.5,2.5,0,0,1,4.31,11.33ZM7.87,12H7V4.83H5.13V3.95H9.79v.89H7.86Zm6.88-1.09A3.38,3.38,0,0,1,12,12.08,10.18,10.18,0,0,1,10.49,12V4.06a9.09,9.09,0,0,1,1.73-.17,3.12,3.12,0,0,1,2.55,1,4.3,4.3,0,0,1,.89,2.9A5,5,0,0,1,14.75,10.92Z"/>
    </g>
</svg>